<?xml version="1.0" encoding="UTF-8" standalone="no"?>
<!-- Created with Inkscape (http://www.inkscape.org/) -->

<svg
   xmlns:dc="http://purl.org/dc/elements/1.1/"
   xmlns:cc="http://creativecommons.org/ns#"
   xmlns:rdf="http://www.w3.org/1999/02/22-rdf-syntax-ns#"
   xmlns:svg="http://www.w3.org/2000/svg"
   xmlns="http://www.w3.org/2000/svg"
   xmlns:sodipodi="http://sodipodi.sourceforge.net/DTD/sodipodi-0.dtd"
   xmlns:inkscape="http://www.inkscape.org/namespaces/inkscape"
   width="210mm"
   height="297mm"
   viewBox="0 0 210 297"
   version="1.1"
   id="svg8"
   inkscape:version="0.92.3 (2405546, 2018-03-11)"
   sodipodi:docname="drawing.svg"
   inkscape:export-filename="/home/suryo/Documents/cv/icons/pngs/projects.png"
   inkscape:export-xdpi="300"
   inkscape:export-ydpi="300">
  <defs
     id="defs2" />
  <sodipodi:namedview
     id="base"
     pagecolor="#ffffff"
     bordercolor="#666666"
     borderopacity="1.0"
     inkscape:pageopacity="0.0"
     inkscape:pageshadow="2"
     inkscape:zoom="0.65206205"
     inkscape:cx="860.28366"
     inkscape:cy="673.54665"
     inkscape:document-units="mm"
     inkscape:current-layer="layer1"
     showgrid="false"
     inkscape:window-width="1920"
     inkscape:window-height="1024"
     inkscape:window-x="0"
     inkscape:window-y="32"
     inkscape:window-maximized="1"
     inkscape:snap-global="false"
     inkscape:measure-start="0,0"
     inkscape:measure-end="0,0"
     inkscape:snap-midpoints="true"
     inkscape:snap-smooth-nodes="true"
     inkscape:object-paths="true"
     inkscape:snap-intersection-paths="true"
     inkscape:snap-object-midpoints="true"
     showguides="false" />
  <metadata
     id="metadata5">
    <rdf:RDF>
      <cc:Work
         rdf:about="">
        <dc:format>image/svg+xml</dc:format>
        <dc:type
           rdf:resource="http://purl.org/dc/dcmitype/StillImage" />
        <dc:title />
      </cc:Work>
    </rdf:RDF>
  </metadata>
  <g
     inkscape:label="Layer 1"
     inkscape:groupmode="layer"
     id="layer1">
    <g
       id="g6510"
       transform="matrix(1.4819951,0,0,1.4819951,-28.299934,58.284396)"
       inkscape:export-filename="/home/suryo/Documents/cv/icons/pngs/personal-stmt.png"
       inkscape:export-xdpi="300"
       inkscape:export-ydpi="300">
      <circle
         r="9.6908178"
         cy="30.55485"
         cx="45.488029"
         id="path815"
         style="opacity:1;fill:#5599ff;stroke:#1a1a1a;stroke-width:0.89958334;stroke-linecap:round;stroke-miterlimit:4;stroke-dasharray:none;stroke-dashoffset:0;stroke-opacity:1" />
      <path
         id="circle819"
         d="m 45.488032,32.468915 a 8.5239737,6.8507029 0 0 0 -7.708667,3.945549 9.6908181,9.6908181 0 0 0 7.708667,3.831095 9.6908181,9.6908181 0 0 0 7.706634,-3.835453 8.5239737,6.8507029 0 0 0 -7.706634,-3.941191 z"
         style="opacity:1;fill:#d7f4e3;stroke:#1a1a1a;stroke-width:0.89958334;stroke-linecap:round;stroke-miterlimit:4;stroke-dasharray:none;stroke-dashoffset:0;stroke-opacity:1"
         inkscape:connector-curvature="0" />
      <circle
         style="opacity:1;fill:#d7f4e3;stroke:#1a1a1a;stroke-width:0.89958334;stroke-linecap:round;stroke-miterlimit:4;stroke-dasharray:none;stroke-dashoffset:0;stroke-opacity:1"
         id="circle817"
         cx="45.488029"
         cy="27.12863"
         r="3.9273863" />
    </g>
    <g
       id="g6520"
       transform="matrix(1.474625,0,0,1.474625,-38.649612,58.509588)"
       inkscape:export-filename="/home/suryo/Documents/cv/icons/pngs/skills.png"
       inkscape:export-xdpi="300"
       inkscape:export-ydpi="300">
      <circle
         r="9.7414999"
         cy="30.55485"
         cx="112.30781"
         id="circle841"
         style="opacity:1;fill:#87de87;stroke:#1a1a1a;stroke-width:0.89958334;stroke-linecap:round;stroke-miterlimit:4;stroke-dasharray:none;stroke-dashoffset:0;stroke-opacity:1" />
      <path
         id="path833"
         d="m 111.8572,24.362041 a 5.5743686,5.5743686 0 0 0 -1.19837,0.15015 l 3.03988,3.039757 c 1.14556,1.145562 1.14556,2.99007 0,4.135631 -1.14557,1.14556 -2.99007,1.14556 -4.13563,0 l -3.04215,-3.042259 a 5.5743686,5.5743686 0 0 0 1.47842,5.226384 5.5743686,5.5743686 0 0 0 5.91583,1.26377 l 3.63103,3.630919 a 9.7415007,9.7415007 0 0 0 3.16261,-3.299905 l -3.56063,-3.560622 a 5.5743686,5.5743686 0 0 0 -1.26547,-5.917533 5.5743686,5.5743686 0 0 0 -4.02552,-1.626292 z"
         style="opacity:1;fill:#999999;stroke:#1a1a1a;stroke-width:0.89958334;stroke-linecap:round;stroke-miterlimit:4;stroke-dasharray:none;stroke-dashoffset:0;stroke-opacity:1"
         inkscape:connector-curvature="0" />
      <circle
         style="opacity:1;fill:none;stroke:#1a1a1a;stroke-width:0.89958334;stroke-linecap:round;stroke-miterlimit:4;stroke-dasharray:none;stroke-dashoffset:0;stroke-opacity:1"
         id="circle847"
         cx="112.30781"
         cy="30.55485"
         r="9.7414999" />
    </g>
    <g
       id="g1163"
       inkscape:export-filename="/home/suryo/Documents/cv/icons/pngs/leadership.png"
       inkscape:export-xdpi="300"
       inkscape:export-ydpi="300">
      <circle
         r="14.357892"
         cy="149.77037"
         cx="39.113102"
         id="circle5748"
         style="opacity:1;fill:#80b3ff;stroke:#1a1a1a;stroke-width:1.34088111;stroke-linecap:round;stroke-miterlimit:4;stroke-dasharray:none;stroke-dashoffset:0;stroke-opacity:1" />
      <path
         inkscape:connector-curvature="0"
         id="path1992"
         d="m 31.20114,140.99979 v 18.21305"
         style="fill:#002255;stroke:#003380;stroke-width:1.34088111;stroke-linecap:round;stroke-linejoin:miter;stroke-miterlimit:4;stroke-dasharray:none;stroke-opacity:1" />
      <path
         inkscape:connector-curvature="0"
         id="path1998"
         d="m 30.6606,141.93604 0.54054,-0.93625 0.54055,0.93625"
         style="fill:#002255;stroke:#003380;stroke-width:1.34088111;stroke-linecap:round;stroke-linejoin:miter;stroke-miterlimit:4;stroke-dasharray:none;stroke-opacity:1" />
      <path
         style="fill:#002255;stroke:#003380;stroke-width:1.34088111;stroke-linecap:round;stroke-linejoin:miter;stroke-miterlimit:4;stroke-dasharray:none;stroke-opacity:1"
         d="M 48.08065,157.83693 H 29.8676"
         id="path2010"
         inkscape:connector-curvature="0" />
      <path
         style="fill:#002255;stroke:#003380;stroke-width:1.34088111;stroke-linecap:round;stroke-linejoin:miter;stroke-miterlimit:4;stroke-dasharray:none;stroke-opacity:1"
         d="m 47.14442,157.2964 0.93623,0.54053 -0.93623,0.54056"
         id="path2012"
         inkscape:connector-curvature="0" />
      <path
         sodipodi:nodetypes="cc"
         inkscape:connector-curvature="0"
         id="path2016"
         d="m 48.23755,145.33274 c -5.56812,5.84106 -10.44261,8.4032 -15.13935,10.12501"
         style="fill:none;stroke:#003380;stroke-width:1.34088111;stroke-linecap:round;stroke-linejoin:miter;stroke-miterlimit:4;stroke-dasharray:none;stroke-opacity:1" />
      <path
         inkscape:connector-curvature="0"
         id="path2018"
         d="m 47.22344,145.61524 1.03696,-0.3057 -0.25373,1.05089"
         style="fill:#002255;stroke:#003380;stroke-width:1.34088111;stroke-linecap:round;stroke-linejoin:miter;stroke-miterlimit:4;stroke-dasharray:none;stroke-opacity:1" />
    </g>
    <g
       id="g6515"
       transform="matrix(1.0544394,0,0,1.0544394,-4.411308,75.63094)"
       inkscape:export-filename="/home/suryo/Documents/cv/icons/pngs/volunteer.png"
       inkscape:export-xdpi="300"
       inkscape:export-ydpi="300">
      <g
         id="g919"
         transform="matrix(1.3985455,0,0,1.3985455,-27.372772,-16.239034)">
        <circle
           style="opacity:1;fill:#ddff55;stroke:#1a1a1a;stroke-width:0.89958334;stroke-linecap:round;stroke-miterlimit:4;stroke-dasharray:none;stroke-dashoffset:0;stroke-opacity:1"
           id="circle5818"
           cx="78.872581"
           cy="30.55485"
           r="9.7411098" />
        <path
           style="fill:#c87137;fill-rule:evenodd;stroke:#1a1a1a;stroke-width:0.89958334;stroke-linecap:butt;stroke-linejoin:miter;stroke-miterlimit:4;stroke-dasharray:none;stroke-opacity:1"
           d="m 83.097357,31.3567 c -1.595891,0.65611 -2.380517,0.83799 -3.780031,1.18431 -2.683331,0.44495 -4.037967,0.68194 -4.207234,0.73742 -0.654277,0.21376 -0.84489,0.31768 -1.234321,0.56714 l -3.138821,2.06658 a 9.74111,9.74111 0 0 0 2.31257,2.41042 l 0.759286,-1.52103 c 0.202826,-0.41477 0.452746,-0.65098 0.734142,-0.76721 l 0.834179,0.26676 2.835979,0.67401 c 1.637254,0.33797 1.84419,0.34786 3.416245,-0.38019 2.157043,-1.09297 3.403301,-2.2651 5.071474,-3.6636 0.170542,-0.15474 0.30809,-0.32992 0.415723,-0.52395 -0.02163,-0.35042 -0.266031,-0.45014 -0.535436,-0.52178 -0.233407,0.12021 -0.399464,0.26945 -0.58108,0.41189 -1.766996,1.50351 -2.731837,2.00133 -5.051524,2.58372 -0.957252,0.20938 -2.435849,-0.14869 -2.306287,-0.53298 2.132953,-0.52866 3.191152,-1.15116 4.95559,-2.02395 0.09614,-0.0482 0.401595,-0.93439 -0.500454,-0.96756 z"
           id="path6226"
           inkscape:connector-curvature="0" />
        <path
           style="opacity:1;fill:#ff2a2a;fill-opacity:1;fill-rule:nonzero;stroke:#1a1a1a;stroke-width:0.89958334;stroke-linecap:butt;stroke-linejoin:miter;stroke-miterlimit:4;stroke-dasharray:none;stroke-dashoffset:0;stroke-opacity:1"
           d="m 76.894922,23.31245 c -1.092292,-6e-5 -1.977792,0.88539 -1.977808,1.97768 0,2.59585 2.196893,3.58016 3.955468,5.26472 1.758596,-1.68456 3.955473,-2.66887 3.955473,-5.26472 0,-1.09229 -0.885521,-1.97774 -1.977798,-1.97768 -1.092239,2e-5 -1.977659,1.61407 -1.977675,2.70629 0,-1.09222 -0.885436,-2.70627 -1.97766,-2.70629 z"
           id="path4601"
           inkscape:connector-curvature="0"
           sodipodi:nodetypes="ccccccc" />
      </g>
    </g>
    <g
       id="g6535"
       transform="matrix(1.4746814,0,0,1.4746814,-44.037667,58.507864)"
       inkscape:export-filename="/home/suryo/Documents/cv/icons/pngs/recreation.png"
       inkscape:export-xdpi="300"
       inkscape:export-ydpi="300">
      <g
         style="stroke-width:0.89958334;stroke-miterlimit:4;stroke-dasharray:none"
         transform="translate(112.13399,-190.26917)"
         id="g6306">
        <circle
           r="9.7411098"
           cy="220.82402"
           cx="33.609051"
           id="circle5986"
           style="opacity:1;fill:#5555ff;stroke:#1a1a1a;stroke-width:0.89958334;stroke-linecap:round;stroke-miterlimit:4;stroke-dasharray:none;stroke-dashoffset:0;stroke-opacity:1" />
        <path
           style="fill:#1a1a1a;fill-rule:evenodd;stroke:#1a1a1a;stroke-width:0.89958334;stroke-linecap:butt;stroke-linejoin:miter;stroke-miterlimit:4;stroke-dasharray:none;stroke-opacity:1"
           d="m 34.8792,219.36819 0.532753,0.53275 2.979154,-2.97916 0.349817,-0.0937 0.8421,-0.84209 1.4e-5,-0.78571 -0.78571,1e-5 -0.848754,0.84875 -0.08864,0.33083 z"
           id="path4740"
           inkscape:connector-curvature="0" />
        <path
           style="fill:#deaa87;fill-rule:evenodd;stroke:#1a1a1a;stroke-width:0.89958334;stroke-linecap:butt;stroke-linejoin:miter;stroke-miterlimit:4;stroke-dasharray:none;stroke-opacity:1"
           d="m 35.177212,219.65241 c -0.01055,-0.0105 -0.02075,-0.02 -0.0312,-0.0305 -0.0056,-0.005 -0.01,-0.0103 -0.01538,-0.0156 l -2.69e-4,2.7e-4 c -1.077209,-1.07677 -1.966634,-1.29548 -2.936125,-0.47216 -0.739055,0.65247 -0.432929,0.87159 -0.734826,1.53582 -0.289836,0.6944 -1.387414,0.51011 -2.082476,0.67648 -2.95967,0.70842 -2.018599,3.06369 -0.542654,4.56362 l -9.13e-4,8e-4 c 0.0074,0.007 0.01539,0.0143 0.02285,0.0216 0.0055,0.005 0.01051,0.0117 0.01603,0.0171 l 9.13e-4,-8.1e-4 c 1.499901,1.47597 3.855196,2.41701 4.563617,-0.54266 0.166352,-0.69504 -0.0181,-1.79245 0.676323,-2.08231 0.664217,-0.30188 0.883523,0.004 1.535976,-0.73497 0.823363,-0.9695 0.60461,-1.85893 -0.472159,-2.93613 z"
           id="path4701"
           inkscape:connector-curvature="0" />
        <circle
           r="0.92951119"
           cy="133.45421"
           cx="180.15898"
           id="circle4708"
           style="opacity:1;fill:#c87137;fill-opacity:1;fill-rule:nonzero;stroke:#1a1a1a;stroke-width:0.89958334;stroke-linecap:butt;stroke-linejoin:miter;stroke-miterlimit:4;stroke-dasharray:none;stroke-dashoffset:0;stroke-opacity:1"
           transform="rotate(45)" />
        <path
           inkscape:connector-curvature="0"
           id="path4710"
           d="m 30.67765,223.16824 0.937399,0.9374"
           style="fill:none;fill-rule:evenodd;stroke:#1a1a1a;stroke-width:0.89958334;stroke-linecap:butt;stroke-linejoin:miter;stroke-miterlimit:4;stroke-dasharray:none;stroke-opacity:1" />
        <circle
           r="0.29127198"
           cy="125.33588"
           cx="179.31215"
           id="circle4724"
           style="opacity:1;fill:#1a1a1a;fill-opacity:1;fill-rule:nonzero;stroke:#1a1a1a;stroke-width:0.89958334;stroke-linecap:butt;stroke-linejoin:miter;stroke-miterlimit:4;stroke-dasharray:none;stroke-dashoffset:0;stroke-opacity:1"
           transform="rotate(45)" />
        <circle
           r="0.29127198"
           cy="124.73571"
           cx="179.31215"
           id="circle4728"
           style="opacity:1;fill:#1a1a1a;fill-opacity:1;fill-rule:nonzero;stroke:#1a1a1a;stroke-width:0.89958334;stroke-linecap:butt;stroke-linejoin:miter;stroke-miterlimit:4;stroke-dasharray:none;stroke-dashoffset:0;stroke-opacity:1"
           transform="rotate(45)" />
        <circle
           style="opacity:1;fill:#1a1a1a;fill-opacity:1;fill-rule:nonzero;stroke:#1a1a1a;stroke-width:0.89958334;stroke-linecap:butt;stroke-linejoin:miter;stroke-miterlimit:4;stroke-dasharray:none;stroke-dashoffset:0;stroke-opacity:1"
           id="circle4730"
           cx="179.31215"
           cy="125.93605"
           r="0.29127198"
           transform="rotate(45)" />
        <path
           style="fill:#1a1a1a;fill-rule:evenodd;stroke:#1a1a1a;stroke-width:0.89958334;stroke-linecap:butt;stroke-linejoin:miter;stroke-miterlimit:4;stroke-dasharray:none;stroke-opacity:1"
           d="m 34.879143,219.36813 0.536015,0.53602"
           id="path4738"
           inkscape:connector-curvature="0" />
        <circle
           style="opacity:1;fill:#1a1a1a;fill-opacity:1;fill-rule:nonzero;stroke:#1a1a1a;stroke-width:0.89958334;stroke-linecap:butt;stroke-linejoin:miter;stroke-miterlimit:4;stroke-dasharray:none;stroke-dashoffset:0;stroke-opacity:1"
           id="circle4779"
           cx="181.04005"
           cy="125.33588"
           r="0.29127198"
           transform="rotate(45)" />
        <circle
           style="opacity:1;fill:#1a1a1a;fill-opacity:1;fill-rule:nonzero;stroke:#1a1a1a;stroke-width:0.89958334;stroke-linecap:butt;stroke-linejoin:miter;stroke-miterlimit:4;stroke-dasharray:none;stroke-dashoffset:0;stroke-opacity:1"
           id="circle4781"
           cx="181.04005"
           cy="124.73571"
           r="0.29127198"
           transform="rotate(45)" />
        <circle
           r="0.29127198"
           cy="125.93605"
           cx="181.04005"
           id="circle4783"
           style="opacity:1;fill:#1a1a1a;fill-opacity:1;fill-rule:nonzero;stroke:#1a1a1a;stroke-width:0.89958334;stroke-linecap:butt;stroke-linejoin:miter;stroke-miterlimit:4;stroke-dasharray:none;stroke-dashoffset:0;stroke-opacity:1"
           transform="rotate(45)" />
      </g>
    </g>
    <g
       id="g1154"
       inkscape:export-filename="/home/suryo/Documents/cv/icons/pngs/edu.png"
       inkscape:export-xdpi="300"
       inkscape:export-ydpi="300">
      <circle
         style="opacity:1;fill:#de8787;stroke:#1a1a1a;stroke-width:1.33328497;stroke-linecap:round;stroke-miterlimit:4;stroke-dasharray:none;stroke-dashoffset:0;stroke-opacity:1"
         id="circle834"
         cx="83.037697"
         cy="149.77036"
         r="14.361691" />
      <path
         inkscape:connector-curvature="0"
         id="path890"
         d="m 77.121504,142.10746 4.781578,8.10437 -2.755484,8.02333"
         style="fill:none;stroke:#1a1a1a;stroke-width:0.733;stroke-linecap:butt;stroke-linejoin:miter;stroke-miterlimit:4;stroke-dasharray:none;stroke-opacity:1" />
      <path
         inkscape:connector-curvature="0"
         id="path892"
         d="m 72.583055,149.56348 9.320027,0.64835 5.510974,-8.02333"
         style="fill:none;stroke:#1a1a1a;stroke-width:0.733;stroke-linecap:butt;stroke-linejoin:miter;stroke-miterlimit:4;stroke-dasharray:none;stroke-opacity:1" />
      <path
         inkscape:connector-curvature="0"
         id="path894"
         d="m 81.903082,150.21183 11.589252,4.37637"
         style="fill:none;stroke:#1a1a1a;stroke-width:0.733;stroke-linecap:butt;stroke-linejoin:miter;stroke-miterlimit:4;stroke-dasharray:none;stroke-opacity:1" />
      <circle
         r="2.3907895"
         cy="150.21181"
         cx="81.903084"
         id="path878"
         style="opacity:1;fill:#ffdd55;stroke:#1a1a1a;stroke-width:0.833;stroke-linecap:round;stroke-miterlimit:4;stroke-dasharray:none;stroke-dashoffset:0;stroke-opacity:1" />
      <circle
         style="opacity:1;fill:#80e5ff;stroke:#1a1a1a;stroke-width:0.833;stroke-linecap:round;stroke-miterlimit:4;stroke-dasharray:none;stroke-dashoffset:0;stroke-opacity:1"
         id="circle880"
         cx="72.583054"
         cy="149.56348"
         r="1.3606964" />
      <circle
         r="1.3606964"
         cy="158.23515"
         cx="79.147606"
         id="circle882"
         style="opacity:1;fill:#99ff55;stroke:#1a1a1a;stroke-width:0.833;stroke-linecap:round;stroke-miterlimit:4;stroke-dasharray:none;stroke-dashoffset:0;stroke-opacity:1" />
      <circle
         style="opacity:1;fill:#ff2a2a;stroke:#1a1a1a;stroke-width:0.833;stroke-linecap:round;stroke-miterlimit:4;stroke-dasharray:none;stroke-dashoffset:0;stroke-opacity:1"
         id="circle884"
         cx="77.121513"
         cy="142.10747"
         r="1.3606964" />
      <circle
         r="1.3606964"
         cy="154.5882"
         cx="93.49234"
         id="circle886"
         style="opacity:1;fill:#2aff80;stroke:#1a1a1a;stroke-width:0.833;stroke-linecap:round;stroke-miterlimit:4;stroke-dasharray:none;stroke-dashoffset:0;stroke-opacity:1" />
      <circle
         style="opacity:1;fill:#c6afe9;stroke:#1a1a1a;stroke-width:0.833;stroke-linecap:round;stroke-miterlimit:4;stroke-dasharray:none;stroke-dashoffset:0;stroke-opacity:1"
         id="circle888"
         cx="87.414055"
         cy="142.18851"
         r="2.2436335" />
    </g>
    <g
       id="g6573"
       transform="matrix(1.466661,0,0,1.466661,-23.709518,65.379826)"
       inkscape:export-filename="/home/suryo/Documents/cv/icons/pngs/researchpng.png"
       inkscape:export-xdpi="300"
       inkscape:export-ydpi="300">
      <circle
         r="9.7968006"
         cy="57.539223"
         cx="132.67992"
         id="circle1946"
         style="opacity:1;fill:#ff2a2a;stroke:#1a1a1a;stroke-width:0.89958334;stroke-linecap:round;stroke-miterlimit:4;stroke-dasharray:none;stroke-dashoffset:0;stroke-opacity:1" />
      <path
         id="rect868"
         d="m 127.10952,49.493656 a 9.7968003,9.7968003 0 0 0 -4.22648,8.04564 9.7968003,9.7968003 0 0 0 9.79694,9.79671 9.7968003,9.7968003 0 0 0 2.17983,-0.25803 v -15.93813 c 0,-0.91205 -0.73435,-1.64619 -1.6464,-1.64619 z"
         style="opacity:1;fill:#ececec;stroke:#1a1a1a;stroke-width:0.89958334;stroke-linecap:round;stroke-miterlimit:4;stroke-dasharray:none;stroke-dashoffset:0;stroke-opacity:1"
         inkscape:connector-curvature="0" />
      <path
         inkscape:connector-curvature="0"
         id="path1930"
         d="m 123.356,53.930906 h 9.873"
         style="fill:none;stroke:#1a1a1a;stroke-width:0.89958334;stroke-linecap:butt;stroke-linejoin:miter;stroke-miterlimit:4;stroke-dasharray:none;stroke-opacity:1" />
      <path
         style="fill:none;stroke:#1a1a1a;stroke-width:0.89958334;stroke-linecap:butt;stroke-linejoin:miter;stroke-miterlimit:4;stroke-dasharray:none;stroke-opacity:1"
         d="M 122.88454,55.970406 H 133.229"
         id="path1932"
         inkscape:connector-curvature="0" />
      <path
         inkscape:connector-curvature="0"
         id="path1934"
         d="M 122.76668,58.009906 H 133.229"
         style="fill:none;stroke:#1a1a1a;stroke-width:0.89958334;stroke-linecap:butt;stroke-linejoin:miter;stroke-miterlimit:4;stroke-dasharray:none;stroke-opacity:1" />
      <path
         style="fill:none;stroke:#1a1a1a;stroke-width:0.89958334;stroke-linecap:butt;stroke-linejoin:miter;stroke-miterlimit:4;stroke-dasharray:none;stroke-opacity:1"
         d="M 123.07868,60.049406 H 133.229"
         id="path1936"
         inkscape:connector-curvature="0" />
      <circle
         transform="rotate(-30.000001)"
         r="3.6575952"
         cy="117.60635"
         cx="86.554543"
         id="path854"
         style="opacity:0.30218069;fill:#80e5ff;stroke:#1a1a1a;stroke-width:0.89958334;stroke-linecap:round;stroke-miterlimit:4;stroke-dasharray:none;stroke-dashoffset:0;stroke-opacity:1" />
      <path
         id="rect856"
         d="m 136.73722,63.113396 c -0.10519,-0.007 -0.21371,0.0156 -0.3123,0.0725 -0.26289,0.15179 -0.35232,0.48567 -0.20054,0.74856 l 1.23673,2.14209 a 9.7968003,9.7968003 0 0 0 0.9253,-0.58919 l -1.21292,-2.10091 c -0.0949,-0.16431 -0.26095,-0.26079 -0.43627,-0.27304 z"
         style="opacity:1;fill:#1a1a1a;stroke:#1a1a1a;stroke-width:0.89958334;stroke-linecap:round;stroke-miterlimit:4;stroke-dasharray:none;stroke-dashoffset:0;stroke-opacity:1"
         inkscape:connector-curvature="0" />
      <path
         inkscape:connector-curvature="0"
         id="path858"
         d="m 136.42496,63.185896 -0.83457,-1.44552"
         style="fill:none;stroke:#1a1a1a;stroke-width:0.89958334;stroke-linecap:butt;stroke-linejoin:miter;stroke-miterlimit:4;stroke-dasharray:none;stroke-opacity:1" />
      <circle
         style="opacity:1;fill:none;stroke:#1a1a1a;stroke-width:0.89958334;stroke-linecap:round;stroke-miterlimit:4;stroke-dasharray:none;stroke-dashoffset:0;stroke-opacity:1"
         id="circle1942"
         cx="86.554543"
         cy="117.60635"
         r="3.6575952"
         transform="rotate(-30.000001)" />
      <circle
         style="opacity:1;fill:none;stroke:#1a1a1a;stroke-width:0.89958334;stroke-linecap:round;stroke-miterlimit:4;stroke-dasharray:none;stroke-dashoffset:0;stroke-opacity:1"
         id="circle1969"
         cx="132.67992"
         cy="57.539223"
         r="9.7968006" />
    </g>
    <g
       id="g6588"
       inkscape:export-filename="/home/suryo/Documents/cv/icons/pngs/ref.png"
       inkscape:export-xdpi="300"
       inkscape:export-ydpi="300"
       transform="matrix(0.99528142,0,0,0.99528142,45.825964,86.052659)">
      <circle
         style="opacity:1;fill:#d7f4e3;stroke:#1a1a1a;stroke-width:1.33288813;stroke-linecap:round;stroke-miterlimit:4;stroke-dasharray:none;stroke-dashoffset:0;stroke-opacity:1"
         id="circle5956"
         cx="81.520988"
         cy="64.019783"
         r="14.433138" />
      <path
         inkscape:export-ydpi="300"
         inkscape:export-xdpi="300"
         inkscape:export-filename="/home/suryo/MyStuff/MyDesigns/PORTFOLIO/icons/references.png"
         inkscape:connector-curvature="0"
         id="rect4645"
         d="m 76.448122,58.701053 c -1.665313,0 -3.005903,1.340603 -3.005903,3.005929 v 4.077638 c 0,1.665296 1.34059,3.005884 3.005903,3.005884 h 4.95118 c 0.696112,2.138691 2.055755,3.419998 3.762147,4.251231 -0.570663,-1.438482 -0.904101,-2.855554 -1.003562,-4.251231 h 2.43596 c 1.665314,0 3.005904,-1.340588 3.005904,-3.005884 v -4.077638 c 0,-1.665326 -1.34059,-3.005929 -3.005904,-3.005929 z"
         style="opacity:1;fill:#80ffb3;fill-opacity:1;fill-rule:nonzero;stroke:#1a1a1a;stroke-width:1.33288813;stroke-linecap:round;stroke-linejoin:miter;stroke-miterlimit:4;stroke-dasharray:none;stroke-dashoffset:0;stroke-opacity:1" />
    </g>
    <g
       id="g6582"
       transform="matrix(1.4637324,0,0,1.4637324,-215.46737,109.21118)"
       inkscape:export-filename="/home/suryo/Documents/cv/icons/pngs/awards.png"
       inkscape:export-xdpi="300"
       inkscape:export-ydpi="300">
      <circle
         style="opacity:1;fill:#ff6600;stroke:#1a1a1a;stroke-width:0.89958334;stroke-linecap:round;stroke-miterlimit:4;stroke-dasharray:none;stroke-dashoffset:0;stroke-opacity:1"
         id="circle5890"
         cx="173.92555"
         cy="57.539227"
         r="9.8173399" />
      <rect
         transform="rotate(90)"
         y="-174.77548"
         x="60.746082"
         height="1.6998417"
         width="4.9405499"
         id="rect5846"
         style="opacity:1;fill:#d4aa00;stroke:#1a1a1a;stroke-width:0.89958334;stroke-linecap:round;stroke-miterlimit:4;stroke-dasharray:none;stroke-dashoffset:0;stroke-opacity:1" />
      <path
         inkscape:connector-curvature="0"
         id="path5833"
         d="m 169.64718,53.01975 v 4.27837 a 4.2783695,4.2783695 0 0 0 4.27837,4.27837 4.2783695,4.2783695 0 0 0 4.27837,-4.27837 v -4.27837 h -4.27837 z"
         style="opacity:1;fill:#ffcc00;stroke:#1a1a1a;stroke-width:0.89958334;stroke-linecap:round;stroke-miterlimit:4;stroke-dasharray:none;stroke-dashoffset:0;stroke-opacity:1" />
      <rect
         y="52.2449"
         x="168.76332"
         height="1.5497205"
         width="10.324468"
         id="rect5842"
         style="opacity:1;fill:#ffcc00;stroke:#1a1a1a;stroke-width:0.89958334;stroke-linecap:round;stroke-miterlimit:4;stroke-dasharray:none;stroke-dashoffset:0;stroke-opacity:1" />
      <path
         id="rect5844"
         d="m 171.37764,64.59578 c -0.33417,0 -0.6031,0.26893 -0.6031,0.6031 v 0.25776 h -0.96664 c -0.37863,0 -0.70481,0.21413 -0.86638,0.528 a 9.8173396,9.8173396 0 0 0 4.98409,1.37191 9.8173396,9.8173396 0 0 0 4.98373,-1.37245 c -0.16167,-0.31359 -0.48778,-0.52746 -0.86621,-0.52746 h -0.96646 v -0.25776 c 0,-0.33417 -0.26911,-0.6031 -0.60328,-0.6031 z"
         style="opacity:1;fill:#784421;stroke:#1a1a1a;stroke-width:0.89958334;stroke-linecap:round;stroke-miterlimit:4;stroke-dasharray:none;stroke-dashoffset:0;stroke-opacity:1"
         inkscape:connector-curvature="0" />
      <path
         id="path6202"
         d="m 167.4797,54.9448 v 2.727481 a 2.7276533,2.7276533 0 0 0 2.72748,2.727484 2.7276533,2.7276533 0 0 0 0.68368,-0.09043 4.2783693,4.2783693 0 0 1 -1.24385,-3.011185 V 54.9448 Z"
         style="opacity:1;fill:none;stroke:#1a1a1a;stroke-width:0.89958334;stroke-linecap:round;stroke-miterlimit:4;stroke-dasharray:none;stroke-dashoffset:0;stroke-opacity:1"
         inkscape:connector-curvature="0" />
      <path
         id="path6204"
         d="m 178.20411,54.9448 v 2.353345 a 4.2783693,4.2783693 0 0 1 -1.24385,3.012736 2.7276533,2.7276533 0 0 0 0.68368,0.08888 2.7276533,2.7276533 0 0 0 2.72748,-2.727484 V 54.9448 Z"
         style="opacity:1;fill:none;stroke:#1a1a1a;stroke-width:0.89958334;stroke-linecap:round;stroke-miterlimit:4;stroke-dasharray:none;stroke-dashoffset:0;stroke-opacity:1"
         inkscape:connector-curvature="0" />
    </g>
    <g
       id="g1185"
       inkscape:export-filename="/home/suryo/Documents/cv/icons/pngs/work.png"
       inkscape:export-xdpi="300"
       inkscape:export-ydpi="300">
      <circle
         r="14.361691"
         cy="193.43295"
         cx="83.037697"
         id="circle908"
         style="opacity:1;fill:#808080;stroke:#1a1a1a;stroke-width:1.33328497;stroke-linecap:round;stroke-miterlimit:4;stroke-dasharray:none;stroke-dashoffset:0;stroke-opacity:1" />
      <path
         id="rect893"
         d="m 75.679653,190.19077 a 3.1859259,3.1859259 0 0 0 -3.185499,3.18602 3.1859259,3.1859259 0 0 0 0.318394,1.38212 h -4.062636 a 14.361691,14.361691 0 0 0 14.263677,13.03455 v -2.83506 a 3.1859259,3.1859259 0 0 0 1.382641,0.31995 3.1859259,3.1859259 0 0 0 3.186015,-3.18602 3.1859259,3.1859259 0 0 0 -3.186015,-3.18602 3.1859259,3.1859259 0 0 0 -1.382641,0.31891 v -4.46631 H 78.54624 a 3.1859259,3.1859259 0 0 0 0.319429,-1.38212 3.1859259,3.1859259 0 0 0 -3.186016,-3.18602 z"
         style="opacity:1;fill:#80e5ff;fill-opacity:1;stroke:#1a1a1a;stroke-width:1.33328497;stroke-linecap:round;stroke-miterlimit:4;stroke-dasharray:none;stroke-dashoffset:0;stroke-opacity:1;paint-order:markers fill stroke"
         inkscape:connector-curvature="0" />
      <path
         id="path901"
         d="m 83.013589,194.75891 v 4.46631 a 3.1859259,3.1859259 0 0 1 1.382641,-0.31891 3.1859259,3.1859259 0 0 1 3.186015,3.18602 3.1859259,3.1859259 0 0 1 -3.186015,3.18602 3.1859259,3.1859259 0 0 1 -1.382641,-0.31995 v 2.83506 a 14.361691,14.361691 0 0 0 0.02429,10e-4 14.361691,14.361691 0 0 0 14.294689,-13.03558 z"
         style="opacity:1;fill:#0088aa;fill-opacity:1;stroke:#1a1a1a;stroke-width:1.33328497;stroke-linecap:round;stroke-miterlimit:4;stroke-dasharray:none;stroke-dashoffset:0;stroke-opacity:1;paint-order:markers fill stroke"
         inkscape:connector-curvature="0" />
    </g>
    <g
       id="g1197"
       inkscape:export-filename="/home/suryo/Documents/cv/icons/pngs/projects.png"
       inkscape:export-xdpi="300"
       inkscape:export-ydpi="300"
       transform="matrix(1.4054763,0,0,1.4054763,68.120604,57.060381)">
      <circle
         r="10.21838"
         cy="97.029617"
         cx="41.866016"
         id="circle911"
         style="opacity:1;fill:#333333;stroke:#1a1a1a;stroke-width:0.94863564;stroke-linecap:round;stroke-miterlimit:4;stroke-dasharray:none;stroke-dashoffset:0;stroke-opacity:1" />
      <path
         id="text940"
         d="m 41.774185,86.94919 -0.772291,0.155929 v 0.397914 l 0.776704,-0.155929 v 2.463609 h -0.713817 v 0.367759 h 1.860118 V 89.810713 H 42.211081 V 86.94919 Z m -2.092174,0.111063 a 10.21838,10.21838 0 0 0 -1.507806,0.441676 c -0.12418,0.270918 -0.187189,0.624775 -0.187189,1.065028 0,0.543607 0.09504,0.959017 0.28538,1.245962 0.191777,0.285503 0.468471,0.428438 0.830397,0.428438 0.361926,0 0.638222,-0.142935 0.828558,-0.428438 0.191777,-0.286945 0.287587,-0.702355 0.287587,-1.245962 0,-0.545052 -0.09581,-0.960093 -0.287587,-1.245596 -0.07107,-0.10713 -0.154359,-0.193974 -0.24934,-0.261108 z m 4.459799,0.01764 c -0.08593,0.0647 -0.162887,0.144915 -0.228746,0.243455 -0.190336,0.285503 -0.28538,0.700544 -0.28538,1.245597 0,0.543606 0.09504,0.959015 0.28538,1.245962 0.191777,0.285503 0.468839,0.428437 0.830765,0.428437 0.361926,0 0.637855,-0.142934 0.82819,-0.428437 0.191778,-0.286947 0.287955,-0.702356 0.287955,-1.245962 0,-0.40624 -0.05345,-0.740082 -0.159975,-1.002141 a 10.21838,10.21838 0 0 0 -0.64946,-0.237205 c 0.08021,0.05542 0.147556,0.135786 0.201531,0.242353 0.113913,0.220616 0.171008,0.552876 0.171008,0.996993 0,0.44267 -0.0571,0.7753 -0.171008,0.997358 -0.112471,0.220616 -0.281857,0.330981 -0.508241,0.330981 -0.224942,0 -0.394329,-0.110365 -0.508241,-0.330981 -0.112471,-0.222058 -0.168801,-0.554688 -0.168801,-0.997358 0,-0.444117 0.05633,-0.776377 0.168801,-0.996993 0.113912,-0.222058 0.283299,-0.333188 0.508241,-0.333188 0.0098,0 0.01876,0.0015 0.02832,0.0018 A 10.21838,10.21838 0 0 0 44.14181,87.077939 Z m -5.039017,0.158871 c 0.226384,0 0.39577,0.11113 0.508241,0.333188 0.113913,0.220616 0.171008,0.552876 0.171008,0.996993 0,0.44267 -0.0571,0.7753 -0.171008,0.997358 -0.112471,0.220616 -0.281857,0.330981 -0.508241,0.330981 -0.224942,0 -0.394328,-0.110365 -0.508241,-0.330981 -0.112471,-0.222058 -0.168801,-0.554688 -0.168801,-0.997358 0,-0.444117 0.05633,-0.776377 0.168801,-0.996993 0.113913,-0.222058 0.283299,-0.333188 0.508241,-0.333188 z m 7.399654,0.698373 c -0.0355,0.186971 -0.05443,0.396434 -0.05443,0.631808 0,0.543606 0.09541,0.959015 0.285748,1.245962 0.191777,0.285503 0.468471,0.428437 0.830396,0.428437 0.361927,0 0.638224,-0.142934 0.828559,-0.428437 0.08611,-0.128841 0.151511,-0.284995 0.198957,-0.46558 a 10.21838,10.21838 0 0 0 -0.377687,-0.31186 c -0.02723,0.214876 -0.07272,0.394591 -0.141587,0.528836 -0.112471,0.220616 -0.281857,0.330981 -0.508242,0.330981 -0.224941,0 -0.394327,-0.110365 -0.508241,-0.330981 -0.112471,-0.222058 -0.1688,-0.554688 -0.1688,-0.997358 0,-0.153778 0.0093,-0.288954 0.0228,-0.415936 A 10.21838,10.21838 0 0 0 46.502447,87.93514 Z m -9.932402,0.367022 a 10.21838,10.21838 0 0 0 -0.432483,0.277289 v 1.231253 h -0.713818 v 0.367759 h 1.860119 v -0.367759 h -0.713818 z m -0.287586,4.125877 c -0.361926,0 -0.63862,0.143327 -0.830397,0.430273 -0.190336,0.285502 -0.285748,0.700909 -0.285748,1.245965 0,0.543612 0.09541,0.958649 0.285748,1.245595 0.191777,0.285502 0.468471,0.428438 0.830397,0.428438 0.361926,0 0.638222,-0.142936 0.828558,-0.428438 0.191777,-0.286946 0.287586,-0.701983 0.287586,-1.245595 0,-0.545056 -0.09581,-0.960463 -0.287586,-1.245965 -0.190336,-0.286946 -0.466632,-0.430273 -0.828558,-0.430273 z m 11.281704,0 c -0.361926,0 -0.638619,0.143327 -0.830397,0.430273 -0.190335,0.285502 -0.285748,0.700909 -0.285748,1.245965 0,0.543612 0.09541,0.958649 0.285748,1.245595 0.191778,0.285502 0.468471,0.428438 0.830397,0.428438 0.361926,0 0.638223,-0.142936 0.828558,-0.428438 0.191777,-0.286946 0.287587,-0.701983 0.287587,-1.245595 0,-0.545056 -0.09581,-0.960463 -0.287587,-1.245965 -0.190335,-0.286946 -0.466632,-0.430273 -0.828558,-0.430273 z m -14.251348,0.05807 -0.64946,0.131286 a 10.21838,10.21838 0 0 0 -0.122831,0.254117 v 0.168435 l 0.776704,-0.155561 v 2.463243 H 32.60341 v 0.367755 h 1.860119 v -0.367755 h -0.713818 v -2.86152 z m 5.641036,0 -0.772291,0.155923 v 0.397915 l 0.776336,-0.155561 v 1.290465 a 4.0787894,4.0787894 0 0 1 0.432851,-0.383205 v -1.305537 z m 2.820334,0 -0.772291,0.155923 v 0.397915 l 0.776704,-0.155561 v 0.06953 a 4.0787894,4.0787894 0 0 1 0.08753,-0.0028 4.0787894,4.0787894 0 0 1 0.344957,0.01729 V 92.48623 Z m 2.820335,0 -0.772292,0.155923 v 0.397915 l 0.776705,-0.155561 v 1.123504 a 4.0787894,4.0787894 0 0 1 0.432482,0.452342 v -1.974123 z m 5.641035,0 -0.772291,0.155923 v 0.397915 l 0.776337,-0.155561 v 2.463243 h -0.713818 v 0.367755 h 1.860118 v -0.367755 h -0.71345 v -2.86152 z m -13.953096,0.287949 c 0.226384,0 0.39577,0.110762 0.508241,0.33282 0.113913,0.22062 0.171007,0.553247 0.171007,0.997363 0,0.44267 -0.05709,0.774935 -0.171007,0.996992 -0.112471,0.220613 -0.281857,0.330977 -0.508241,0.330977 -0.224942,0 -0.394329,-0.110364 -0.508241,-0.330977 -0.112471,-0.222057 -0.168801,-0.554322 -0.168801,-0.996992 0,-0.444116 0.05633,-0.776743 0.168801,-0.997363 0.113912,-0.222058 0.283299,-0.33282 0.508241,-0.33282 z m 11.281704,0 c 0.226384,0 0.39577,0.110762 0.508241,0.33282 0.113914,0.22062 0.171008,0.553247 0.171008,0.997363 0,0.44267 -0.0571,0.774935 -0.171008,0.996992 -0.112471,0.220613 -0.281857,0.330977 -0.508241,0.330977 -0.224942,0 -0.394328,-0.110364 -0.508241,-0.330977 -0.112472,-0.222057 -0.168801,-0.554322 -0.168801,-0.996992 0,-0.444116 0.05633,-0.776743 0.168801,-0.997363 0.113913,-0.222058 0.283299,-0.33282 0.508241,-0.33282 z m -1.987731,2.573571 a 4.0787894,4.0787894 0 0 1 0.145633,0.367755 h 0.02317 v -0.367755 z m 4.808065,2.617338 c -0.361926,0 -0.638619,0.143335 -0.830397,0.430281 -0.190336,0.285501 -0.28538,0.700909 -0.28538,1.245965 0,0.54361 0.09504,0.95902 0.28538,1.24596 0.191778,0.28551 0.468471,0.42808 0.830397,0.42808 0.361926,0 0.638223,-0.14257 0.828558,-0.42808 0.191778,-0.28694 0.287586,-0.70235 0.287586,-1.24596 0,-0.545056 -0.09581,-0.960464 -0.287586,-1.245965 -0.190335,-0.286946 -0.466632,-0.430281 -0.828558,-0.430281 z m -17.071682,0.0585 -0.772291,0.155561 v 0.397914 l 0.776704,-0.15556 v 2.463611 H 32.60341 v 0.36739 h 1.860119 v -0.36739 h -0.713818 v -2.861526 z m 2.820334,0 -0.771923,0.155561 v 0.397914 l 0.776336,-0.15556 v 2.463611 h -0.713818 v 0.36739 h 1.860119 v -0.36739 h -0.713818 v -2.861526 z m 11.281704,0 -0.771923,0.155561 v 0.397914 l 0.776336,-0.15556 v 2.463611 h -0.713817 v 0.36739 h 1.860119 v -0.36739 H 47.85175 v -2.861526 z m 2.969644,0.287587 c 0.226384,0 0.395771,0.111132 0.508241,0.33319 0.113913,0.220613 0.171008,0.55287 0.171008,0.996992 0,0.442667 -0.0571,0.774927 -0.171008,0.996987 -0.11247,0.22062 -0.281857,0.33098 -0.508241,0.33098 -0.224942,0 -0.394328,-0.11036 -0.508241,-0.33098 -0.112471,-0.22206 -0.168801,-0.55432 -0.168801,-0.996987 0,-0.444122 0.05633,-0.776379 0.168801,-0.996992 0.113913,-0.222058 0.283299,-0.33319 0.508241,-0.33319 z M 38.13559,98.666673 c -0.09861,0.257911 -0.148574,0.582162 -0.148574,0.974561 0,0.543606 0.09504,0.959016 0.28538,1.245956 0.191777,0.28551 0.468471,0.42808 0.830397,0.42808 0.361926,0 0.638222,-0.14257 0.828558,-0.42808 0.04297,-0.0643 0.0803,-0.13611 0.113637,-0.2133 a 4.0787894,4.0787894 0 0 1 -0.365919,-0.20667 c -0.02008,0.0622 -0.04203,0.1203 -0.06803,0.171 -0.11247,0.22062 -0.281857,0.33098 -0.508241,0.33098 -0.224942,0 -0.394328,-0.11036 -0.508241,-0.33098 -0.112471,-0.22206 -0.168801,-0.55432 -0.168801,-0.996986 0,-0.143548 0.0081,-0.271112 0.01986,-0.391296 a 4.0787894,4.0787894 0 0 1 -0.31002,-0.583265 z m 6.895825,0.930794 a 4.0787894,4.0787894 0 0 1 -0.432482,0.453813 v 0.83371 h -0.713819 v 0.36739 h 1.860119 v -0.36739 H 45.031415 Z M 42.924899,100.967 a 4.0787894,4.0787894 0 0 1 -1.058775,0.14122 4.0787894,4.0787894 0 0 1 -0.801343,-0.0798 v 0.22397 h 1.860118 z m -3.822106,2.53495 c -0.361926,0 -0.63862,0.14333 -0.830397,0.43028 -0.190336,0.2855 -0.28538,0.70091 -0.28538,1.24596 0,0.54361 0.09504,0.95902 0.28538,1.24597 0.06537,0.0973 0.141403,0.17637 0.226539,0.24051 a 10.21838,10.21838 0 0 0 0.580321,0.18645 c 0.008,1.4e-4 0.01545,0.001 0.02354,0.001 0.361926,0 0.638222,-0.14256 0.828558,-0.42806 0.191777,-0.28695 0.287587,-0.70236 0.287587,-1.24597 0,-0.54505 -0.09581,-0.96046 -0.287587,-1.24596 -0.190336,-0.28695 -0.466632,-0.43028 -0.828558,-0.43028 z m 5.641036,0 c -0.361926,0 -0.638988,0.14333 -0.830765,0.43028 -0.190336,0.2855 -0.28538,0.70091 -0.28538,1.24596 0,0.54361 0.09504,0.95902 0.28538,1.24597 0.180125,0.26815 0.436549,0.40847 0.766775,0.42476 a 10.21838,10.21838 0 0 0 0.741767,-0.2464 c 0.05483,-0.0517 0.105245,-0.11061 0.150413,-0.17836 0.191778,-0.28695 0.287955,-0.70236 0.287955,-1.24597 0,-0.54505 -0.09618,-0.96046 -0.287955,-1.24596 -0.190335,-0.28695 -0.466264,-0.43028 -0.82819,-0.43028 z m 2.820334,0 c -0.361926,0 -0.638619,0.14333 -0.830397,0.43028 -0.190335,0.2855 -0.285748,0.70091 -0.285748,1.24596 0,0.36244 0.04337,0.66664 0.12798,0.91498 a 10.21838,10.21838 0 0 0 0.379894,-0.21808 c -0.04413,-0.19072 -0.06877,-0.41962 -0.06877,-0.6969 0,-0.44411 0.05633,-0.77637 0.168801,-0.99699 0.113913,-0.22206 0.283299,-0.33319 0.508241,-0.33319 0.226385,0 0.395771,0.11113 0.508242,0.33319 0.09919,0.1921 0.152668,0.474 0.165491,0.83555 A 10.21838,10.21838 0 0 0 48.645,104.65892 c -0.04345,-0.29712 -0.127047,-0.54025 -0.252283,-0.72669 -0.190335,-0.28695 -0.466632,-0.43028 -0.828558,-0.43028 z m -11.431014,0.0585 -0.771923,0.15556 v 0.39792 l 0.776336,-0.15556 v 1.53024 a 10.21838,10.21838 0 0 0 0.432483,0.26515 v -2.19331 z m 5.641036,0 -0.772291,0.15556 v 0.39792 l 0.776704,-0.15556 v 2.46361 h -0.713817 v 0.36775 h 1.860118 v -0.36775 h -0.713818 v -2.86153 z m 7.839124,0.12541 -0.150045,0.0302 v 0.13093 a 10.21838,10.21838 0 0 0 0.150045,-0.16108 z m -10.510516,0.16218 c 0.226384,0 0.39577,0.11113 0.508241,0.33319 0.113913,0.22062 0.171008,0.55288 0.171008,0.99699 0,0.44268 -0.0571,0.77494 -0.171008,0.99699 -0.112471,0.22062 -0.281857,0.33098 -0.508241,0.33098 -0.224942,0 -0.394328,-0.11036 -0.508241,-0.33098 -0.112471,-0.22205 -0.168801,-0.55431 -0.168801,-0.99699 0,-0.44411 0.05633,-0.77637 0.168801,-0.99699 0.113913,-0.22206 0.283299,-0.33319 0.508241,-0.33319 z m 5.641036,0 c 0.226384,0 0.39577,0.11113 0.508241,0.33319 0.113913,0.22062 0.171008,0.55288 0.171008,0.99699 0,0.44268 -0.0571,0.77494 -0.171008,0.99699 -0.112471,0.22062 -0.281857,0.33098 -0.508241,0.33098 -0.224942,0 -0.394329,-0.11036 -0.508241,-0.33098 -0.112471,-0.22205 -0.168801,-0.55431 -0.168801,-0.99699 0,-0.44411 0.05633,-0.77637 0.168801,-0.99699 0.113912,-0.22206 0.283299,-0.33319 0.508241,-0.33319 z"
         style="font-style:normal;font-weight:normal;font-size:6.22440624px;line-height:1.25;font-family:sans-serif;letter-spacing:0px;word-spacing:0px;fill:#ececec;fill-opacity:1;stroke:none;stroke-width:0.11074068"
         inkscape:connector-curvature="0" />
      <circle
         style="opacity:1;fill:none;stroke:#1a1a1a;stroke-width:0.94863564;stroke-linecap:round;stroke-miterlimit:4;stroke-dasharray:none;stroke-dashoffset:0;stroke-opacity:1"
         id="circle1142"
         cx="41.866016"
         cy="97.029617"
         r="10.21838" />
      <path
         inkscape:connector-curvature="0"
         id="path1081"
         d="m 40.886125,89.918476 v 1.578749 a 5.6236511,5.6236511 0 0 0 -2.23515,0.931453 l -1.120216,-1.120206 -1.385883,1.385881 1.117277,1.117277 a 5.6236511,5.6236511 0 0 0 -0.925294,2.238082 H 34.75488 v 1.959798 h 1.578756 a 5.6236511,5.6236511 0 0 0 0.931456,2.23515 l -1.120216,1.12021 1.385883,1.38588 1.117284,-1.11727 a 5.6236511,5.6236511 0 0 0 2.238082,0.92529 v 1.58198 h 1.959791 V 102.562 a 5.6236511,5.6236511 0 0 0 2.235143,-0.93146 l 1.120216,1.12021 1.385883,-1.38588 -1.117276,-1.11728 a 5.6236511,5.6236511 0 0 0 0.925293,-2.23808 h 1.58198 V 96.049712 H 47.39635 A 5.6236511,5.6236511 0 0 0 46.469882,93.81163 l 1.117276,-1.117277 -1.385883,-1.385881 -1.114344,1.114342 a 5.6236511,5.6236511 0 0 0 -2.241015,-0.923533 v -1.580805 z m 0.979892,3.622789 a 3.4882234,3.4882234 0 0 1 3.488346,3.488346 3.4882234,3.4882234 0 0 1 -3.488346,3.488349 3.4882234,3.4882234 0 0 1 -3.488346,-3.488349 3.4882234,3.4882234 0 0 1 3.488346,-3.488346 z"
         style="opacity:1;fill:#333333;fill-opacity:1;stroke:#2aff80;stroke-width:0.54868579;stroke-linecap:round;stroke-miterlimit:4;stroke-dasharray:none;stroke-dashoffset:0;stroke-opacity:1;paint-order:markers fill stroke" />
      <text
         id="text1117"
         y="98.283569"
         x="38.958366"
         style="font-style:normal;font-weight:normal;font-size:4.1045866px;line-height:1.25;font-family:sans-serif;letter-spacing:0px;word-spacing:0px;fill:#ececec;fill-opacity:1;stroke:none;stroke-width:0.10261466"
         xml:space="preserve"><tspan
           style="font-style:normal;font-variant:normal;font-weight:normal;font-stretch:normal;font-size:4.1045866px;font-family:'Latin Modern Mono Caps';-inkscape-font-specification:'Latin Modern Mono Caps, Normal';font-variant-ligatures:normal;font-variant-caps:normal;font-variant-numeric:normal;font-feature-settings:normal;text-align:start;letter-spacing:-0.32426232px;writing-mode:lr-tb;text-anchor:start;fill:#ececec;fill-opacity:1;stroke-width:0.10261466"
           y="98.283569"
           x="38.958366"
           id="tspan1115"
           sodipodi:role="line">&lt;/&gt;</tspan></text>
    </g>
    <g
       id="g1177"
       inkscape:export-filename="/home/suryo/Documents/cv/icons/pngs/projects.png"
       inkscape:export-xdpi="300"
       inkscape:export-ydpi="300">
      <circle
         style="opacity:1;fill:#333333;stroke:#1a1a1a;stroke-width:1.33328485;stroke-linecap:round;stroke-miterlimit:4;stroke-dasharray:none;stroke-dashoffset:0;stroke-opacity:1"
         id="circle907"
         cx="170.8869"
         cy="193.43321"
         r="14.361691" />
      <text
         xml:space="preserve"
         style="font-style:normal;font-weight:normal;font-size:8.00180244px;line-height:1.25;font-family:sans-serif;letter-spacing:0px;word-spacing:0px;fill:#2aff80;fill-opacity:1;stroke:none;stroke-width:0.20004505"
         x="169.81018"
         y="203.48274"
         id="text918"><tspan
           sodipodi:role="line"
           id="tspan916"
           x="169.81018"
           y="203.48274"
           style="font-style:normal;font-variant:normal;font-weight:normal;font-stretch:normal;font-size:8.00180244px;font-family:'Latin Modern Mono Caps';-inkscape-font-specification:'Latin Modern Mono Caps, Normal';font-variant-ligatures:normal;font-variant-caps:normal;font-variant-numeric:normal;font-feature-settings:normal;text-align:start;letter-spacing:-0.63214242px;writing-mode:lr-tb;text-anchor:start;fill:#2aff80;fill-opacity:1;stroke-width:0.20004505">&lt;/&gt;</tspan></text>
      <path
         id="text941"
         d="m 168.77273,181.2048 c -0.66811,0 -1.17904,0.26475 -1.53306,0.79444 -0.35135,0.52703 -0.52721,1.29395 -0.52721,2.30009 0,1.00349 0.17586,1.76989 0.52721,2.29958 0.35402,0.52703 0.86495,0.7903 1.53306,0.7903 0.6681,0 1.17807,-0.26327 1.52943,-0.7903 0.35401,-0.52969 0.53083,-1.29609 0.53083,-2.29958 0,-1.00614 -0.17682,-1.77306 -0.53083,-2.30009 -0.35136,-0.52969 -0.86133,-0.79444 -1.52943,-0.79444 z m 8.48088,0 c -0.66811,0 -1.17904,0.26475 -1.53305,0.79444 -0.35135,0.52703 -0.5267,1.29395 -0.5267,2.30009 0,1.00349 0.17535,1.76989 0.5267,2.29958 0.35401,0.52703 0.86494,0.7903 1.53305,0.7903 0.6681,0 1.17808,-0.26327 1.52943,-0.7903 0.35402,-0.52969 0.53083,-1.29609 0.53083,-2.29958 0,-1.00614 -0.17681,-1.77306 -0.53083,-2.30009 -0.35135,-0.52969 -0.86133,-0.79444 -1.52943,-0.79444 z m -12.99682,0.10803 -1.42502,0.28738 v 0.73448 l 1.43329,-0.28738 v 4.54747 h -1.31751 v 0.67865 h 3.4336 v -0.67865 h -1.31752 v -5.28195 z m 8.48088,0 -1.42502,0.28738 v 0.73448 l 1.43329,-0.28738 v 4.54747 h -1.31751 v 0.67865 h 3.4336 v -0.67865 h -1.31752 v -5.28195 z m -3.96494,0.53083 c 0.41789,0 0.73103,0.20465 0.93864,0.61457 0.21028,0.40724 0.31529,1.02128 0.31529,1.8411 0,0.81716 -0.10501,1.43068 -0.31529,1.84059 -0.20761,0.40725 -0.52075,0.61043 -0.93864,0.61043 -0.41524,0 -0.72785,-0.20318 -0.93813,-0.61043 -0.20762,-0.40991 -0.31116,-1.02343 -0.31116,-1.84059 0,-0.81982 0.10354,-1.43386 0.31116,-1.8411 0.21028,-0.40992 0.52289,-0.61457 0.93813,-0.61457 z m 8.48088,0 c 0.41789,0 0.73103,0.20465 0.93864,0.61457 0.21028,0.40724 0.3153,1.02128 0.3153,1.8411 0,0.81716 -0.10502,1.43068 -0.3153,1.84059 -0.20761,0.40725 -0.52075,0.61043 -0.93864,0.61043 -0.41524,0 -0.72785,-0.20318 -0.93813,-0.61043 -0.20762,-0.40991 -0.31116,-1.02343 -0.31116,-1.84059 0,-0.81982 0.10354,-1.43386 0.31116,-1.8411 0.21028,-0.40992 0.52289,-0.61457 0.93813,-0.61457 z m -15.31294,0.35561 a 14.361691,14.361691 0 0 0 -0.59957,0.52721 c 0.13539,0.3922 0.20468,0.91502 0.20468,1.57285 0,0.81716 -0.10501,1.43068 -0.31529,1.84059 -0.20762,0.40725 -0.52075,0.61043 -0.93865,0.61043 -0.41523,0 -0.72784,-0.20318 -0.93812,-0.61043 -0.1184,-0.23376 -0.19929,-0.54193 -0.25017,-0.90814 a 14.361691,14.361691 0 0 0 -0.57735,0.91952 c 0.0664,0.16418 0.14377,0.3137 0.2326,0.44761 0.35401,0.52703 0.86495,0.7903 1.53304,0.7903 0.66811,0 1.17809,-0.26327 1.52944,-0.7903 0.35401,-0.52969 0.53083,-1.29609 0.53083,-2.29958 0,-0.88565 -0.13713,-1.58564 -0.41144,-2.10006 z m 17.89266,0.0176 c -0.26608,0.51275 -0.39903,1.2069 -0.39903,2.08249 0,1.00348 0.17535,1.76988 0.5267,2.29957 0.35402,0.52703 0.86546,0.7903 1.53357,0.7903 0.6681,0 1.17756,-0.26327 1.52891,-0.7903 0.0872,-0.13051 0.16376,-0.27593 0.2295,-0.4352 a 14.361691,14.361691 0 0 0 -0.57167,-0.89626 c -0.052,0.35069 -0.13247,0.64606 -0.24861,0.87248 -0.20762,0.40725 -0.52024,0.61043 -0.93813,0.61043 -0.41524,0 -0.72837,-0.20318 -0.93865,-0.61043 -0.20762,-0.40991 -0.31116,-1.02343 -0.31116,-1.84059 0,-0.65403 0.0674,-1.17468 0.19952,-1.56613 a 14.361691,14.361691 0 0 0 -0.61095,-0.51636 z m -15.30105,9.20916 c -0.6681,0 -1.17903,0.26474 -1.53305,0.79443 -0.35135,0.52703 -0.52721,1.29343 -0.52721,2.29958 0,1.00349 0.17586,1.7704 0.52721,2.30009 0.35402,0.52703 0.86495,0.79031 1.53305,0.79031 0.66811,0 1.17809,-0.26328 1.52944,-0.79031 0.35401,-0.52969 0.53083,-1.2966 0.53083,-2.30009 0,-1.00615 -0.17682,-1.77255 -0.53083,-2.29958 -0.35135,-0.52969 -0.86133,-0.79443 -1.52944,-0.79443 z m 8.48089,0 c -0.6681,0 -1.17904,0.26474 -1.53305,0.79443 -0.35117,0.52675 -0.52651,1.29267 -0.5267,2.29803 a 8.3706722,8.3706722 0 0 1 0.82804,-0.5086 c 0.0357,-0.56729 0.13191,-1.01332 0.29358,-1.33044 0.21028,-0.40991 0.52289,-0.61456 0.93813,-0.61456 0.41789,0 0.73102,0.20465 0.93864,0.61456 0.0729,0.14107 0.13229,0.30872 0.17987,0.4993 a 8.3706722,8.3706722 0 0 1 0.77583,-0.11061 c -0.0874,-0.3289 -0.20754,-0.6134 -0.36491,-0.84768 -0.35135,-0.52969 -0.86133,-0.79443 -1.52943,-0.79443 z m 4.24044,0 c -0.66811,0 -1.17904,0.26474 -1.53305,0.79443 -0.15059,0.22588 -0.26653,0.49869 -0.35251,0.81253 a 8.3706722,8.3706722 0 0 1 0.34682,-0.0124 8.3706722,8.3706722 0 0 1 0.45899,0.0227 c 0.0401,-0.13515 0.0872,-0.2571 0.14162,-0.36388 0.21028,-0.40991 0.52289,-0.61456 0.93813,-0.61456 0.41789,0 0.73103,0.20465 0.93864,0.61456 0.10928,0.21165 0.18893,0.48171 0.24139,0.80478 a 8.3706722,8.3706722 0 0 1 0.8487,0.34579 c -0.065,-0.67365 -0.23126,-1.21051 -0.4993,-1.60955 -0.35135,-0.52969 -0.86133,-0.79444 -1.52943,-0.79444 z m -20.58351,0.0925 a 14.361691,14.361691 0 0 0 -0.0837,0.69261 c 0.16197,0.1024 0.2966,0.25789 0.40317,0.46829 0.21028,0.40725 0.31581,1.02077 0.31581,1.84059 0,0.81716 -0.10554,1.43068 -0.31581,1.84059 -0.0327,0.0642 -0.069,0.12163 -0.107,0.17574 a 14.361691,14.361691 0 0 0 0.18504,0.79651 c 0.19718,-0.12748 0.36928,-0.29677 0.51326,-0.51275 0.35401,-0.52969 0.53083,-1.2966 0.53083,-2.30009 0,-1.00614 -0.17682,-1.77255 -0.53083,-2.29957 -0.2332,-0.35157 -0.538,-0.5837 -0.91074,-0.70192 z m 28.4338,0.003 c -0.36802,0.11939 -0.66994,0.3509 -0.90246,0.69881 -0.35135,0.52703 -0.52669,1.29343 -0.52669,2.29958 0,1.00349 0.17534,1.7704 0.52669,2.30009 0.14042,0.20905 0.30688,0.37473 0.49672,0.50086 a 14.361691,14.361691 0 0 0 0.20158,-0.79082 c -0.0365,-0.0523 -0.0715,-0.10789 -0.10338,-0.16954 -0.20761,-0.40991 -0.31115,-1.02343 -0.31115,-1.84059 0,-0.81982 0.10354,-1.43334 0.31115,-1.84059 0.10506,-0.20481 0.23556,-0.35857 0.39179,-0.46105 a 14.361691,14.361691 0 0 0 -0.0842,-0.69675 z m -25.08755,0.0119 -1.42502,0.2879 v 0.73448 l 1.43329,-0.28739 v 4.54747 h -1.31751 v 0.67866 h 3.4336 v -0.67866 h -1.31752 v -5.28246 z m 8.48088,0 -1.42502,0.2879 v 0.73448 l 1.43329,-0.28739 v 4.54747 h -1.31751 v 0.67866 h 1.12472 a 8.3706722,8.3706722 0 0 1 0.99136,-1.48447 v -4.47665 z m 12.72184,0 -1.42554,0.2879 v 0.73448 l 1.4333,-0.28739 v 2.83196 a 8.3706722,8.3706722 0 0 1 0.79857,0.80684 v -4.37379 z m -16.68678,0.53135 c 0.41789,0 0.73102,0.20465 0.93864,0.61456 0.21028,0.40725 0.31529,1.02077 0.31529,1.84059 0,0.81716 -0.10501,1.43068 -0.31529,1.84059 -0.20762,0.40725 -0.52075,0.61095 -0.93864,0.61095 -0.41524,0 -0.72785,-0.2037 -0.93813,-0.61095 -0.20762,-0.40991 -0.31168,-1.02343 -0.31168,-1.84059 0,-0.81982 0.10407,-1.43334 0.31168,-1.84059 0.21028,-0.40991 0.52289,-0.61456 0.93813,-0.61456 z m 18.18882,4.75111 a 8.3706722,8.3706722 0 0 1 0.39645,0.67866 h 0.22535 v -0.67866 z m -22.42927,4.83122 c -0.37786,0 -0.70363,0.0874 -0.98102,0.25688 a 14.361691,14.361691 0 0 0 0.41143,0.55358 c 0.16177,-0.11356 0.35106,-0.1716 0.56959,-0.1716 0.4179,0 0.73103,0.20466 0.93865,0.61456 0.17196,0.33304 0.26949,0.81195 0.30082,1.4209 a 14.361691,14.361691 0 0 0 0.81563,0.63782 c 0.002,-0.0723 0.005,-0.14325 0.005,-0.21812 0,-1.00615 -0.17682,-1.77256 -0.53083,-2.29958 -0.35135,-0.5297 -0.86133,-0.79444 -1.52943,-0.79444 z m 3.96495,0.10752 -1.42502,0.2879 v 0.73449 l 1.43329,-0.28739 v 3.67446 a 14.361691,14.361691 0 0 0 0.79858,0.38611 v -4.79557 z m 3.1395,0.4838 c -0.0549,0.0631 -0.10766,0.12986 -0.15661,0.20313 -0.35136,0.52703 -0.52722,1.29343 -0.52722,2.29958 0,1.00349 0.17586,1.7704 0.52722,2.30009 0.0863,0.12846 0.18237,0.24086 0.28738,0.33804 a 14.361691,14.361691 0 0 0 1.92329,0.3432 c 0.18207,-0.0647 0.34605,-0.15964 0.49362,-0.2817 a 8.3706722,8.3706722 0 0 1 -0.48949,-0.5086 c -0.18302,0.17255 -0.40975,0.2605 -0.68175,0.2605 -0.41524,0 -0.72785,-0.20369 -0.93813,-0.61094 -0.20762,-0.40991 -0.31116,-1.02343 -0.31116,-1.84059 0,-0.47195 0.0352,-0.87323 0.10389,-1.20845 a 8.3706722,8.3706722 0 0 1 -0.23104,-1.29426 z m -1.07252,4.79867 a 14.361691,14.361691 0 0 0 0.0574,0.0207 v -0.0207 z"
         style="font-style:normal;font-weight:normal;font-size:8.17518902px;line-height:1.25;font-family:sans-serif;letter-spacing:0px;word-spacing:0px;fill:#2aff80;fill-opacity:1;stroke:none;stroke-width:0.20442344"
         inkscape:connector-curvature="0" />
      <path
         inkscape:export-ydpi="300"
         inkscape:export-xdpi="300"
         inkscape:export-filename="/home/suryo/Documents/cv/icons/pngs/projects.png"
         id="path931"
         d="m 173.56829,187.17522 v 3.07748 a 10.963187,10.963187 0 0 0 -4.35725,1.81629 l -2.1838,-2.18431 -2.70171,2.70222 2.17812,2.17811 a 10.963187,10.963187 0 0 0 -1.8039,4.36295 h -3.08419 v 3.82073 h 3.07799 a 10.963187,10.963187 0 0 0 1.63487,4.09003 14.361691,14.361691 0 0 0 4.55832,0.75619 14.361691,14.361691 0 0 0 2.62263,-0.24965 6.8002165,6.8002165 0 0 1 -4.83123,-6.50694 6.8002165,6.8002165 0 0 1 6.80052,-6.80052 6.8002165,6.8002165 0 0 1 6.80052,6.80052 6.8002165,6.8002165 0 0 1 -0.12354,1.27307 14.361691,14.361691 0 0 0 2.88985,-6.5762 10.963187,10.963187 0 0 0 -0.59182,-0.97018 l 0.76652,-0.76652 a 14.361691,14.361691 0 0 0 0.0284,-0.56546 14.361691,14.361691 0 0 0 -0.2083,-2.4381 l -1.11024,-1.11025 -2.17243,2.17243 a 10.963187,10.963187 0 0 0 -4.36863,-1.80028 v -3.08161 z"
         style="opacity:1;fill:#16502d;fill-opacity:1;stroke:#cccccc;stroke-width:1.06965113;stroke-linecap:round;stroke-miterlimit:4;stroke-dasharray:none;stroke-dashoffset:0;stroke-opacity:1;paint-order:markers fill stroke"
         inkscape:connector-curvature="0" />
      <circle
         r="14.361691"
         cy="193.43321"
         cx="170.8869"
         id="circle912"
         style="opacity:1;fill:none;stroke:#1a1a1a;stroke-width:1.33328485;stroke-linecap:round;stroke-miterlimit:4;stroke-dasharray:none;stroke-dashoffset:0;stroke-opacity:1" />
    </g>
  </g>
</svg>
